[Header]
FileType HTR
DataType HTRS
FileVersion 1
NumSegments 22
NumFrames 4
DataFrameRate 24
EulerRotationOrder ZYX
CalibrationUnits mm
RotationUnits Degrees
GlobalAxisofGravity Y
BoneLengthAxis Y
ScaleFactor 1.0
[SegmentNames&Hierarchy]
reference	GLOBAL
Hips	reference
Spine	Hips
Spine1	Spine
Neck	Spine1
Head	Neck
LeftShoulder	Spine1
LeftArm	LeftShoulder
LeftForeArm	LeftArm
LeftHand	LeftForeArm
RightShoulder	Spine1
RightArm	RightShoulder
RightForeArm	RightArm
RightHand	RightForeArm
LeftUpLeg	Hips
LeftLeg	LeftUpLeg
LeftFoot	LeftLeg
LeftToeBase	LeftFoot
RightUpLeg	Hips
RightLeg	RightUpLeg
RightFoot	RightLeg
RightToeBase	RightFoot
[BasePosition]
reference	0	0	0	0	0	0	1
Hips	0	0	0	0	0	0	1
Spine	0	0	0	0	-0	90	1
Spine1	0	0	0	0	0	0	1
Neck	0	0	0	-7.352430803	-7.352430803	90	1
Head	0	0	0	0	-0	90	1
LeftShoulder	0	0	0	0	0	0	1
LeftArm	0	0	0	0	0	0	1
LeftForeArm	0	0	0	0	0	0	1
LeftHand	0	0	0	0	0	0	1
RightShoulder	0	0	0	0	-0	180	1
RightArm	0	0	0	0	-0	180	1
RightForeArm	0	0	0	0	-0	180	1
RightHand	0	0	0	0	-0	180	1
LeftUpLeg	0	0	0	0	-0	-90	1
LeftLeg	0	0	0	0	-0	-90	1
LeftFoot	0	0	0	66.57150701	-66.57150701	-90	1
LeftToeBase	0	0	0	0	-90	0	1
RightUpLeg	0	0	0	0	-0	-90	1
RightLeg	0	0	0	0	-0	-90	1
RightFoot	0	0	0	66.57150701	-66.57150701	-90	1
RightToeBase	0	0	0	0	-90	0	1
[reference]
10	0	0	0	0	-0	0	1.0
11	0	0	0	0	-0	0	1.0
12	0	0	0	0	-0	0	1.0
13	0	0	0	0	-0	0	1.0
[Hips]
10	1.488080025	8.572739601	0.8452299833	2.919477463	-96.97076416	-1.715013504	1.0
11	1.488080025	8.572739601	0.8452299833	2.082634449	-97.36187744	-0.8609341979	1.0
12	1.488080025	8.572739601	0.8452299833	2.051797867	-97.58042908	-1.020582914	1.0
13	1.488080025	8.572739601	0.8452299833	1.414367676	-97.81929016	-0.3641967773	1.0
[Spine]
10	0	0.7478299737	0	-9.886037827	-0.4955203831	-89.55361176	1.0
11	0	0.7478299737	0	-9.964076996	-0.4832985401	-89.52451324	1.0
12	0	0.7478299737	0	-9.92073822	-0.5547509193	-89.55693054	1.0
13	0	0.7478299737	0	-9.908504486	-0.6040067673	-89.57549286	1.0
[Spine1]
10	0	2.049309969	0	7.872467995	-0.1067276895	-1.079556704	1.0
11	0	2.049309969	0	7.927280426	-0.1040878445	-1.090985179	1.0
12	0	2.049309969	0	7.928524971	-0.122420013	-1.137746215	1.0
13	0	2.049309969	0	7.929011345	-0.13666448	-1.073629379	1.0
[Neck]
10	0	2.231709957	0	0.5342417359	9.743873596	-86.68955231	1.0
11	0	2.231709957	0	0.7748402953	11.02378654	-86.80058289	1.0
12	0	2.231709957	0	1.550080657	12.83158398	-86.65362549	1.0
13	0	2.231709957	0	2.407108068	13.16174603	-86.48163605	1.0
[Head]
10	0	1.413589954	0.1823999882	-15.00646019	2.721795321	-91.84284973	1.0
11	0	1.413589954	0.1823999882	-14.77315426	1.5639956	-91.48335266	1.0
12	0	1.413589954	0.1823999882	-15.62565041	0.0323577635	-91.40788269	1.0
13	0	1.413589954	0.1823999882	-17.0696125	-0.02185490169	-91.52339172	1.0
[LeftShoulder]
10	0.3649300039	1.825889945	-0.04271000251	-11.74124146	-8.673144341	4.072141647	1.0
11	0.3649300039	1.825889945	-0.04271000251	-11.77585888	-8.666543961	4.094914913	1.0
12	0.3649300039	1.825889945	-0.04271000251	-11.24434185	-8.97149086	4.108410835	1.0
13	0.3649300039	1.825889945	-0.04271000251	-11.07785797	-9.137703896	4.170557022	1.0
[LeftArm]
10	1.24003005	0	0	41.90471268	8.997803688	-81.92666626	1.0
11	1.24003005	0	0	41.74778366	9.37441349	-82.04190063	1.0
12	1.24003005	0	0	41.05859375	9.281654358	-82.08244324	1.0
13	1.24003005	0	0	40.70766449	9.380239487	-82.19812012	1.0
[LeftForeArm]
10	2.847419977	0	0	-12.58725739	-12.93848801	-3.911476612	1.0
11	2.847419977	0	0	-12.6871376	-12.73052406	-4.105910301	1.0
12	2.847419977	0	0	-12.2197094	-12.43259621	-4.537720203	1.0
13	2.847419977	0	0	-12.08244896	-12.19129086	-4.744439125	1.0
[LeftHand]
10	2.258270025	0	0	-12.90936184	-5.147595882	-2.708449841	1.0
11	2.258270025	0	0	-13.00477314	-5.028124332	-3.203227043	1.0
12	2.258270025	0	0	-12.57346153	-4.850895405	-3.322402239	1.0
13	2.258270025	0	0	-12.44192028	-4.892459393	-3.454339266	1.0
[RightShoulder]
10	-0.3646599948	1.825889945	-0.04271000251	-9.014167786	7.892805576	177.7307587	1.0
11	-0.3646599948	1.825889945	-0.04271000251	-8.772987366	8.109798431	177.9204102	1.0
12	-0.3646599948	1.825889945	-0.04271000251	-8.446102142	8.355013847	178.0676117	1.0
13	-0.3646599948	1.825889945	-0.04271000251	-8.234176636	8.473586082	178.2048187	1.0
[RightArm]
10	-1.24003005	0	0	48.7722702	-4.901474476	-97.27886963	1.0
11	-1.24003005	0	0	49.01243973	-4.897208214	-97.21623993	1.0
12	-1.24003005	0	0	47.86431122	-4.779091835	-97.289505	1.0
13	-1.24003005	0	0	48.65634537	-4.916741848	-97.1778183	1.0
[RightForeArm]
10	-2.847419977	0	0	-0.5048803091	13.23009777	178.1959991	1.0
11	-2.847419977	0	0	-0.7612223625	13.18940926	178.0621033	1.0
12	-2.847419977	0	0	-0.3463424146	13.31973267	178.5728455	1.0
13	-2.847419977	0	0	-0.958280623	13.27532482	178.1153259	1.0
[RightHand]
10	-2.258270025	0	0	-0.4049093723	7.420505524	178.3152466	1.0
11	-2.258270025	0	0	-0.6527466774	7.400036812	178.2131042	1.0
12	-2.258270025	0	0	-0.2878339291	7.33787632	178.3165741	1.0
13	-2.258270025	0	0	-0.8275133371	7.390674591	178.6308594	1.0
[LeftUpLeg]
10	0.9119900465	0	0	2.669181585	-6.155956745	91.65911865	1.0
11	0.9119900465	0	0	2.801957369	-6.504714489	91.75009155	1.0
12	0.9119900465	0	0	2.917872429	-6.302717686	91.71575928	1.0
13	0.9119900465	0	0	2.998734236	-6.165213585	91.73925781	1.0
[LeftLeg]
10	0	-4.371409893	0	4.162045479	-4.63422966	88.25804138	1.0
11	0	-4.371409893	0	4.18764019	-4.705565929	87.98593903	1.0
12	0	-4.371409893	0	4.282401562	-4.825083733	87.97415161	1.0
13	0	-4.371409893	0	4.317863941	-5.021430492	87.92342377	1.0
[LeftFoot]
10	0	-3.918009996	0	-87.76717377	113.1786499	-34.9593277	1.0
11	0	-3.918009996	0	-86.54108429	113.7336121	-33.47703552	1.0
12	0	-3.918009996	0	-86.51837158	113.8557281	-33.31295013	1.0
13	0	-3.918009996	0	-86.19564056	113.9958038	-32.89888	1.0
[LeftToeBase]
10	0	-0.5927900076	1.367989898	0	0	0	1.0
11	0	-0.5927900076	1.367989898	0	0	0	1.0
12	0	-0.5927900076	1.367989898	0	0	0	1.0
13	0	-0.5927900076	1.367989898	0	0	0	1.0
[RightUpLeg]
10	-0.9119900465	0	0	6.676524639	-10.41943455	90.35691071	1.0
11	-0.9119900465	0	0	6.750131607	-10.38335419	90.38031006	1.0
12	-0.9119900465	0	0	6.824038029	-10.32396317	90.33494568	1.0
13	-0.9119900465	0	0	6.7904706	-10.11900425	90.37767029	1.0
[RightLeg]
10	0	-4.371409893	0	-2.091656685	-2.61880827	91.4282608	1.0
11	0	-4.371409893	0	-2.112133026	-2.477797508	91.387146	1.0
12	0	-4.371409893	0	-1.995554209	-2.329524994	91.36073303	1.0
13	0	-4.371409893	0	-1.817030668	-2.343867064	91.28494263	1.0
[RightFoot]
10	0	-3.918009996	0	28.62490845	63.71569824	73.42900085	1.0
11	0	-3.918009996	0	28.93196487	63.79805374	73.72729492	1.0
12	0	-3.918009996	0	28.90657806	63.80528641	73.83476257	1.0
13	0	-3.918009996	0	28.94078445	63.79059219	73.94721222	1.0
[RightToeBase]
10	0	-0.5927900076	1.367989898	0	0	0	1.0
11	0	-0.5927900076	1.367989898	0	0	0	1.0
12	0	-0.5927900076	1.367989898	0	0	0	1.0
13	0	-0.5927900076	1.367989898	0	0	0	1.0
[EndOfFile]
